<!-- <svg xmlns="http://www.w3.org/2000/svg" viewBox="0 0 1440 320">
    <path fill="#9b51e0" fill-opacity="1"
        d="M0,128L26.7,117.3C53.3,107,107,85,160,112C213.3,139,267,213,320,229.3C373.3,245,427,203,480,176C533.3,149,587,139,640,154.7C693.3,171,747,213,800,234.7C853.3,256,907,256,960,256C1013.3,256,1067,256,1120,218.7C1173.3,181,1227,107,1280,80C1333.3,53,1387,75,1413,85.3L1440,96L1440,320L1413.3,320C1386.7,320,1333,320,1280,320C1226.7,320,1173,320,1120,320C1066.7,320,1013,320,960,320C906.7,320,853,320,800,320C746.7,320,693,320,640,320C586.7,320,533,320,480,320C426.7,320,373,320,320,320C266.7,320,213,320,160,320C106.7,320,53,320,27,320L0,320Z">
    </path>
</svg> -->
<svg xmlns="http://www.w3.org/2000/svg" viewBox="0 0 1440 320">
    <path fill="#9b51e0" fill-opacity="1"
        d="M0,224L26.7,229.3C53.3,235,107,245,160,256C213.3,267,267,277,320,288C373.3,299,427,309,480,282.7C533.3,256,587,192,640,154.7C693.3,117,747,107,800,117.3C853.3,128,907,160,960,181.3C1013.3,203,1067,213,1120,218.7C1173.3,224,1227,224,1280,202.7C1333.3,181,1387,139,1413,117.3L1440,96L1440,320L1413.3,320C1386.7,320,1333,320,1280,320C1226.7,320,1173,320,1120,320C1066.7,320,1013,320,960,320C906.7,320,853,320,800,320C746.7,320,693,320,640,320C586.7,320,533,320,480,320C426.7,320,373,320,320,320C266.7,320,213,320,160,320C106.7,320,53,320,27,320L0,320Z">
    </path>
</svg>